<svg width="130" height="130" viewBox="0 0 130 130" fill="none" xmlns="http://www.w3.org/2000/svg">
<path d="M23.0202 1.625C10.2913 1.625 0 11.9173 0 24.6472V105.353C0 118.083 10.2913 128.375 23.0202 128.375H106.98C119.709 128.375 130 118.083 130 105.353V24.6472C130 11.9173 119.709 1.625 106.98 1.625H23.0202ZM46.5837 33.8548C51.025 33.8548 54.7087 34.3952 57.7413 35.5327C60.4607 36.4567 62.9402 37.9745 65 39.976C66.7451 41.7271 68.0938 43.8326 68.9548 46.15C69.7673 48.425 70.199 50.7538 70.199 53.1913C70.199 57.8497 69.1156 61.6955 66.949 64.7288C64.7837 67.7615 61.751 70.0375 58.2298 71.3375C54.5462 72.6923 50.4837 73.1788 46.0423 73.1788C44.7423 73.1788 43.874 73.1788 43.3327 73.125C42.7913 73.0712 42.0327 73.0712 41.0038 73.0712V90.4587C41.0577 90.8375 40.7875 91.1635 40.4087 91.2173H29.9C29.4673 91.2173 29.252 90.999 29.252 90.5115V34.775C29.252 34.3962 29.4145 34.1778 29.7934 34.1778C30.7145 34.1778 31.5809 34.1778 32.826 34.125C34.126 34.0702 35.4798 34.0722 36.9423 34.0173C38.4048 33.9635 39.976 33.9625 41.6548 33.9087C43.3347 33.8538 44.9587 33.8548 46.5837 33.8548ZM47.7923 44.523C47.5157 44.5177 47.239 44.5184 46.9625 44.525C45.5548 44.525 44.3087 44.526 43.2788 44.5809C42.1962 44.526 41.4385 44.5798 41.0597 44.6337V62.8337C41.8173 62.8885 42.5202 62.9413 43.1702 62.9413H46.0423C48.1548 62.9413 50.2673 62.6163 52.2712 61.9663C54.0048 61.4788 55.5212 60.449 56.7125 59.0952C57.85 57.7403 58.3923 55.9 58.3923 53.5163C58.4422 51.8241 58.0104 50.1525 57.1472 48.6962C56.226 47.2885 54.925 46.2038 53.3538 45.6087C51.5998 44.8977 49.722 44.5606 47.7923 44.523ZM93.2212 47.2885C95.4423 47.2885 97.7173 47.449 99.9375 47.774C101.562 47.9903 103.133 48.426 104.595 49.0222C104.812 49.076 105.029 49.2913 105.136 49.5077C105.191 49.724 105.246 49.9413 105.246 50.1577V58.9875C105.247 59.0926 105.223 59.1963 105.176 59.2904C105.129 59.3844 105.06 59.4661 104.976 59.5288C104.489 59.6375 104.217 59.6375 104.001 59.5288C102.376 58.6625 100.641 58.0673 98.799 57.6885C96.7952 57.2548 94.7913 56.9827 92.7337 56.9827C91.65 56.9278 90.5115 57.0923 89.4827 57.3625C88.7778 57.525 88.1827 57.9048 87.8038 58.4462C87.5337 58.8798 87.3712 59.4212 87.3712 59.9087C87.3712 60.3962 87.5885 60.8837 87.9135 61.3163C88.401 61.9125 89.05 62.401 89.7538 62.7809C91.01 63.43 92.2932 64.0254 93.6 64.5653C96.525 65.5403 99.3413 66.8962 101.941 68.5212C103.729 69.6587 105.191 71.176 106.22 73.0173C107.092 74.7449 107.52 76.662 107.467 78.5962C107.511 81.1566 106.774 83.6696 105.353 85.8C103.842 87.962 101.735 89.637 99.2875 90.6202C96.6327 91.7577 93.3827 92.3538 89.4827 92.3538C86.9903 92.3538 84.5548 92.1375 82.1173 91.65C80.2069 91.3199 78.3489 90.7369 76.5923 89.9163C76.2135 89.7 75.9413 89.3202 75.9952 88.8865V79.4625C75.9952 79.3 76.049 79.0827 76.2115 78.975C76.374 78.8663 76.5365 78.9222 76.699 79.0298C78.7854 80.2607 81.0521 81.1566 83.4163 81.6847C85.475 82.226 87.6423 82.4962 89.8097 82.4962C91.8673 82.4962 93.3298 82.225 94.3048 81.7375C95.1712 81.3587 95.7663 80.4375 95.7663 79.4625C95.7663 78.7048 95.3337 77.999 94.4663 77.2941C93.6 76.5903 91.8125 75.7788 89.1587 74.75C86.4355 73.7909 83.8494 72.4798 81.4663 70.85C79.769 69.6405 78.3627 68.0677 77.35 66.2462C76.4856 64.5354 76.0578 62.6374 76.1048 60.7212C76.1048 58.3923 76.7538 56.1712 77.9452 54.1673C79.299 52.001 81.3048 50.2673 83.6347 49.1847C86.1798 47.8847 89.374 47.2885 93.2212 47.2885Z" fill="#CD6B41"/>
</svg>
