<svg width="130" height="130" viewBox="0 0 130 130" fill="none" xmlns="http://www.w3.org/2000/svg">
<path d="M20 0C8.9543 0 0 8.95431 0 20V110C0 121.046 8.9543 130 20 130H64.8307H110C121.046 130 130 121.046 130 110V20C130 8.9543 121.046 0 110 0H20ZM105.004 30.9336C104.625 34.4489 101.658 37.1138 98.1226 37.1138H50.0095C45.7781 37.1138 42.4677 40.7603 42.8755 44.972V44.972C43.2312 48.6457 46.3186 51.4487 50.0095 51.4487H80.6981C92.5852 51.4487 101.849 61.7552 100.585 73.5749L99.8517 80.4314C98.9497 88.8677 92.823 95.8168 84.5661 97.7687L65.2405 102.337C65.2186 102.342 65.2031 102.362 65.2031 102.384V102.384C65.2031 102.411 65.1814 102.433 65.1545 102.433H64.8697C64.8438 102.433 64.818 102.43 64.7928 102.424L39.9239 96.5281C34.8403 95.3228 31.0931 91.0075 30.6127 85.8051L30.2016 81.3537C29.7635 76.6099 33.4971 72.5156 38.2611 72.5156H39.3254C42.8563 72.5156 45.8192 75.1779 46.1955 78.6887V78.6887C46.5088 81.6123 48.638 84.0173 51.502 84.6826L60.3752 86.744C63.3067 87.425 66.3551 87.4262 69.2871 86.7476L76.1564 85.1577C80.2639 84.2071 83.3257 80.77 83.7972 76.5804V76.5804C84.4607 70.6842 79.8472 65.5223 73.9138 65.5223H46.5927C36.3371 65.5223 27.7434 57.765 26.6971 47.5629L26.4663 45.3129C25.257 33.5221 34.5092 23.2723 46.3619 23.2723H98.1226C102.238 23.2723 105.444 26.8419 105.004 30.9336V30.9336Z" fill="#CD6B41"/>
</svg>
