<svg width="531" height="650" viewBox="0 0 531 650" fill="none" xmlns="http://www.w3.org/2000/svg">
<g clip-path="url(#clip0_430_2)">
<path fill-rule="evenodd" clip-rule="evenodd" d="M299.038 301.979L247.852 472.911L223.776 601.25H199.611L223.733 301.979H299.038Z" fill="#E8BA91"/>
<path fill-rule="evenodd" clip-rule="evenodd" d="M322.042 301.979C318.471 390.778 319.879 439.211 320.679 447.278C321.478 455.346 326.016 509.378 356.94 603.958H331.807C290.853 513.225 276.556 459.193 271.859 447.278C267.162 435.364 253.289 386.931 233.036 301.979H322.042Z" fill="#E8BA91"/>
<path fill-rule="evenodd" clip-rule="evenodd" d="M300.137 301.979C286.823 360.797 263.794 454.686 231.052 583.646H195.708C193.098 451.281 204.203 364.163 223.434 301.979H300.137Z" fill="#69A1AC"/>
<path fill-rule="evenodd" clip-rule="evenodd" d="M322.221 301.979C318.723 390.778 327.788 478.261 355.869 585.028H318.159C277.13 495.649 247.723 408.598 227.625 301.979H322.221Z" fill="#89C5CC"/>
<path fill-rule="evenodd" clip-rule="evenodd" d="M360.523 621.562L359.136 599.896C351.016 602.197 340.847 601.294 328.627 597.188C315.487 606.207 298.946 612.366 279.004 615.664C277.482 615.916 276.46 617.315 276.719 618.789C276.736 618.885 276.758 618.979 276.785 619.073L278.703 625.625H328.627H357.749L360.523 621.562Z" fill="white"/>
<path fill-rule="evenodd" clip-rule="evenodd" d="M229.17 621.562L227.783 599.896C219.664 602.197 209.494 601.294 197.274 597.188C184.134 606.207 167.594 612.366 147.651 615.664C146.13 615.916 145.107 617.315 145.367 618.789C145.383 618.885 145.405 618.979 145.433 619.073L147.35 625.625H197.274H226.396L229.17 621.562Z" fill="white"/>
</g>
<path fill-rule="evenodd" clip-rule="evenodd" d="M280.504 140.143C286.943 132.819 291.301 123.842 290.573 113.784C288.475 84.8047 246.847 91.1798 238.75 105.806C230.652 120.433 231.614 157.534 242.08 160.148C246.253 161.191 255.144 158.637 264.193 153.352L258.513 192.292H292.05L280.504 140.143Z" fill="#E8BA91"/>
<path fill-rule="evenodd" clip-rule="evenodd" d="M251.996 89.876C256.579 88.5218 263.231 88.0626 266.03 88.3733C264.438 84.6772 263.806 80.5593 264.321 76.5498C264.822 72.6538 266.618 69.3365 268.28 65.8604C269.045 64.2581 269.913 62.6646 271.207 61.4391C272.525 60.1905 274.194 59.3663 275.944 58.9731C277.734 58.5706 279.606 58.6041 281.4 58.9694C282.193 59.1309 282.905 59.4824 283.683 59.6778C284.48 59.878 284.866 59.3948 285.444 58.9091C286.838 57.7389 288.881 57.1612 290.644 56.9545C292.622 56.7226 294.675 57.0118 296.562 57.642C298.398 58.2555 300.162 59.2517 301.49 60.703C302.081 61.349 302.617 62.0843 302.966 62.8961C303.109 63.2293 303.133 63.4267 303.476 63.5487C303.793 63.6617 304.164 63.665 304.492 63.7725C307.658 64.8117 310.365 67.1825 311.839 70.2264C312.699 72.0023 313.106 75.1289 312.995 78.6333C312.883 82.1377 309.618 91.2818 306.564 94.6171C303.838 97.5941 299.831 99.5587 295.964 100.419C298.531 103.262 300.239 106.815 301.503 110.428C302.875 114.353 303.724 118.431 304.038 122.586C304.336 126.534 304.364 130.709 303.409 134.573C302.515 138.186 300.604 141.15 297.415 143.03C295.954 143.892 294.382 144.539 292.801 145.13C291.243 145.713 289.68 146.28 288.047 146.607C284.958 147.225 281.399 147.119 279.02 144.736C278.162 143.877 277.219 142.798 276.593 141.749C276.368 141.371 276.232 141.124 276.506 140.756C276.833 140.314 277.363 139.975 277.783 139.63C280.182 137.659 281.667 135.029 282.041 131.903C282.421 128.731 281.542 124.637 278.359 123.252C274.431 121.543 270.105 123.505 266.614 125.333C265.13 120.258 262.083 115.688 257.307 113.361C252.022 110.785 245.958 110.484 240.527 108.274C239.112 107.698 237.671 107.044 236.629 105.871C236.193 105.381 235.683 104.745 235.509 104.096C235.28 103.244 235.847 102.53 236.285 101.866C238.608 98.3445 247.414 91.2302 251.996 89.876Z" fill="#523525"/>
<g clip-path="url(#clip1_430_2)">
<path fill-rule="evenodd" clip-rule="evenodd" d="M183.162 295.495L138.588 327.214C126.499 330.375 116.399 334.309 108.288 339.014C106.372 340.706 104.056 344.132 112.002 343.54C119.948 342.948 128.334 342.671 129.43 345.298C130.526 347.924 125.718 351.065 127.934 354.609C129.412 356.971 136.392 351.047 148.876 336.837L193.015 319.099L183.162 295.495ZM354.302 296.589L325.101 296.701C343.131 353.107 352.865 383.035 354.302 386.487C357.536 394.252 350.693 406.079 347.767 412.435C357.297 416.567 356.282 401.262 368.304 406.683C379.277 411.63 387.624 420.594 400.302 413.013C401.861 412.081 403.569 408.572 399.442 405.83C389.16 398.998 374.344 387.041 372.342 383.105C369.612 377.738 363.599 348.899 354.302 296.589Z" fill="#E8BA91"/>
<path fill-rule="evenodd" clip-rule="evenodd" d="M271.317 177.845L259.233 175.837C214.401 213.368 195.987 285.47 141.034 323.666L154.26 339.554C249.594 328.115 273.224 240.168 271.317 177.845Z" fill="#CD6B41"/>
<path fill-rule="evenodd" clip-rule="evenodd" d="M323.99 325C275.541 325 239.903 325 217.076 325C212.19 325 213.111 318.164 213.817 314.714C221.968 274.901 253.785 231.984 253.785 175.311L284.624 170.625C310.132 210.381 318.953 259.329 323.99 325Z" fill="#DDE3E9"/>
<path fill-rule="evenodd" clip-rule="evenodd" d="M323.131 209.703C327.61 208.456 331.157 205.546 333.772 200.973C345.044 181.263 340.973 170.412 328.927 166.845C316.881 163.277 306.138 170.625 286.946 170.625C285.902 170.625 284.946 170.688 284.078 170.815L274.423 171.349C246.724 262.323 239.085 323.019 251.506 353.438H335.656C340.642 364.704 345.413 374.183 349.969 381.875H372.898C375.056 314.258 358.467 256.867 323.131 209.703Z" fill="#F17743"/>
<path fill-rule="evenodd" clip-rule="evenodd" d="M317.331 306.716C314.685 328.174 310.384 343.748 304.427 353.438H335.656C329.84 340.295 323.732 324.721 317.331 306.716Z" fill="black" fill-opacity="0.1"/>
</g>
<defs>
<clipPath id="clip0_430_2">
<rect width="215.195" height="323.646" fill="white" transform="matrix(-1 0 0 1 360.521 316.875)"/>
</clipPath>
<clipPath id="clip1_430_2">
<rect width="296.242" height="251.875" fill="white" transform="translate(106.2 165.208)"/>
</clipPath>
</defs>
</svg>
